0
SECTION
2
TABLES
0
TABLE
2
LTYPE
70
1
0
LTYPE
2
DASHED
70
0
3
Dashed
72
65
73
2
40
5
49
3
74
0
49
-2
74
0
0
ENDTAB
0
TABLE
2
LAYER
70
5
0
LAYER
2
WALLS
70
0
62
3
6
CONTINUOUS
0
LAYER
2
DOORS
70
0
62
1
6
CONTINUOUS
0
LAYER
2
FURNITURE
70
0
62
4
6
CONTINUOUS
0
LAYER
2
DECOR
70
0
62
6
6
CONTINUOUS
0
LAYER
2
NOTES
70
0
62
2
6
CONTINUOUS
0
ENDTAB
0
ENDSEC
0
SECTION
2
BLOCKS
0
BLOCK
8
0
2
CHAIR
70
0
10
0
20
0
3
CHAIR
0
LWPOLYLINE
8
0
90
4
70
1
10
-2
20
-2
10
2
20
-2
10
2
20
2
10
-2
20
2
0
LINE
8
0
10
-2
20
1.3
11
2
21
1.3
0
ENDBLK
0
BLOCK
8
0
2
*D1
70
0
10
0
20
0
3
*D1
0
LINE
8
NOTES
10
0
20
-10
11
100
21
-10
0
LINE
8
NOTES
10
0
20
-1
11
0
21
-11
0
LINE
8
NOTES
10
100
20
-1
11
100
21
-11
0
SOLID
8
NOTES
10
0
20
-10
11
5
21
-8.5
12
5
22
-11.5
0
SOLID
8
NOTES
10
100
20
-10
11
95
21
-8.5
12
95
22
-11.5
0
TEXT
8
NOTES
10
42
20
-8
40
4
1
100
0
ENDBLK
0
ENDSEC
0
SECTION
2
ENTITIES
0
LWPOLYLINE
8
WALLS
90
4
70
1
10
0
20
0
10
100
20
0
10
100
20
70
10
0
20
70
0
LINE
8
WALLS
10
60
20
0
11
60
21
30
0
LINE
8
WALLS
10
75
20
30
11
100
21
30
0
LINE
8
WALLS
10
60
20
30
11
65
21
30
0
LINE
8
WALLS
6
DASHED
10
0
20
50
11
60
21
50
0
ARC
8
DOORS
370
100
10
65
20
30
40
10
50
0
51
90
0
LINE
8
DOORS
370
50
10
65
20
30
11
65
21
40
0
SOLID
8
DOORS
10
6
20
60
11
12
21
60
12
9
22
66
0
CIRCLE
8
FURNITURE
370
50
10
30
20
45
40
8
0
LWPOLYLINE
8
FURNITURE
90
2
70
0
10
75
20
45
42
1
10
90
20
45
0
INSERT
8
FURNITURE
2
CHAIR
10
30
20
57
50
180
0
INSERT
8
FURNITURE
2
CHAIR
10
30
20
33
50
0
0
INSERT
8
FURNITURE
2
CHAIR
10
18
20
45
50
270
0
INSERT
8
FURNITURE
2
CHAIR
10
42
20
45
50
90
0
HATCH
8
FURNITURE
2
SOLID
70
1
91
1
92
2
72
0
73
1
93
4
10
78
20
10
10
92
20
10
10
92
20
20
10
78
20
20
0
ELLIPSE
8
DECOR
10
30
20
15
11
12
21
0
40
0.45
41
0
42
6.283185307179586
0
SPLINE
8
DECOR
71
3
73
5
10
72
20
60
10
78
20
68
10
86
20
58
10
92
20
66
10
98
20
60
0
TEXT
8
NOTES
10
8
20
62
40
4
1
ROOM A
50
0
0
MTEXT
8
NOTES
10
70
20
60
40
3
71
1
1
Floor plan
0
DIMENSION
8
NOTES
2
*D1
10
0
20
0
70
0
0
POINT
8
NOTES
10
50
20
35
0
ATTDEF
8
NOTES
10
90
20
5
40
2
1
x
2
TAG
70
0
0
ENDSEC
0
EOF
